<?xml version="1.0" standalone="no"?>
<!DOCTYPE svg PUBLIC "-//W3C//DTD SVG 20010904//EN"
 "http://www.w3.org/TR/2001/REC-SVG-20010904/DTD/svg10.dtd">
<svg version="1.0" xmlns="http://www.w3.org/2000/svg"
 width="40.000000pt" height="40.000000pt" viewBox="0 0 500.000000 500.000000"
 preserveAspectRatio="xMidYMid meet">

<g transform="translate(0.000000,500.000000) scale(0.100000,-0.100000)"
fill="#000000" stroke="none">
<path d="M2240 4250 c-236 -33 -520 -145 -740 -293 -148 -100 -361 -314 -460
-462 -143 -215 -240 -457 -281 -698 -29 -166 -23 -509 10 -657 52 -233 161
-481 288 -660 78 -108 226 -267 328 -350 239 -195 535 -327 844 -376 148 -23
496 -15 633 15 461 101 866 380 1122 774 110 168 202 390 248 600 16 71 21
142 25 312 4 192 2 236 -16 342 -119 703 -655 1267 -1356 1429 -110 25 -139
28 -350 30 -126 1 -259 -2 -295 -6z m561 -932 c7 -12 9 -41 6 -69 -6 -50 6
-102 29 -129 6 -8 14 -26 16 -40 3 -24 5 -25 75 -21 104 5 163 -18 233 -88 62
-62 80 -106 80 -193 0 -104 -59 -208 -140 -245 -22 -10 -40 -21 -40 -25 0 -4
80 -7 178 -7 97 0 187 -1 199 -1 20 0 21 -5 20 -57 l-2 -58 -957 -3 -958 -2 0
60 0 60 220 0 c121 0 220 4 220 8 0 4 -16 14 -35 21 -48 17 -102 73 -131 135
-18 39 -24 68 -24 124 0 59 -3 72 -16 72 -20 0 -15 15 29 89 80 135 213 181
362 127 l65 -24 35 48 c19 26 35 50 35 54 0 3 -19 6 -43 6 -66 0 -93 40 -39
61 15 6 42 18 59 27 32 15 34 14 57 -11 14 -15 36 -27 50 -27 37 0 76 -17 76
-34 0 -20 -27 -28 -77 -20 -24 3 -43 3 -43 0 0 -7 66 -246 76 -276 4 -12 9
-11 24 8 22 26 38 28 55 5 23 -31 56 -1 149 133 78 112 90 135 91 174 1 25 6
55 10 68 l8 23 -38 -15 c-21 -9 -45 -16 -55 -16 -29 0 -32 29 -5 56 20 20 34
24 79 24 46 0 57 -3 67 -22z m654 -983 c0 -7 -328 -11 -957 -13 -849 -2 -958
0 -958 13 0 13 109 15 958 13 629 -2 957 -6 957 -13z m-1727 -61 c18 -5 22
-13 22 -48 l-1 -41 -13 31 c-22 50 -72 60 -104 19 -40 -50 -37 -179 5 -220 10
-10 28 -15 52 -13 28 2 39 9 49 31 18 37 25 29 17 -17 l-7 -36 -54 0 c-33 0
-64 6 -79 16 -28 18 -55 81 -55 127 0 114 70 177 168 151z m219 -99 c41 -29
42 -136 2 -176 -27 -27 -92 -26 -118 2 -39 42 -36 125 6 171 20 22 81 24 110
3z m132 -55 c17 -39 35 -69 40 -66 4 3 22 35 39 71 21 44 37 65 49 65 16 0 18
-9 15 -92 -3 -79 -1 -94 14 -105 15 -11 11 -13 -31 -13 -42 0 -46 2 -31 13 14
10 17 25 14 72 l-3 60 -35 -67 c-19 -38 -37 -68 -40 -68 -4 0 -21 30 -38 68
l-32 67 2 -73 3 -72 -30 1 c-16 0 -24 3 -17 6 8 3 12 33 12 98 0 65 -4 95 -12
98 -7 3 1 6 18 6 29 1 33 -4 63 -69z m339 54 c51 -35 14 -104 -55 -104 -31 0
-33 -2 -33 -35 0 -22 6 -38 18 -44 14 -9 11 -10 -18 -11 l-35 0 3 92 c3 79 1
94 -14 105 -28 21 105 18 134 -3z m157 -56 c15 -40 36 -88 46 -105 l18 -33
-42 0 c-27 0 -37 3 -29 9 8 5 12 17 10 27 -2 14 -13 20 -45 22 -39 3 -42 1
-48 -27 -5 -25 -12 -31 -32 -31 -21 0 -22 2 -11 14 8 7 29 54 48 105 19 50 39
91 45 91 7 0 24 -33 40 -72z m189 7 c26 -35 52 -67 57 -70 17 -11 10 102 -7
119 -14 15 -12 16 22 16 30 0 35 -3 26 -12 -8 -8 -12 -46 -12 -105 0 -51 -4
-93 -8 -93 -5 0 -33 33 -63 74 -30 41 -56 75 -59 75 -3 1 -3 -33 0 -74 l5 -75
-30 0 c-16 0 -25 4 -19 8 18 12 24 171 7 188 -12 12 -11 14 9 14 18 0 36 -17
72 -65z m214 54 c-12 -6 -18 -22 -18 -44 l0 -35 50 0 50 0 0 35 c0 22 -6 38
-17 44 -14 8 -8 10 27 10 25 0 39 -3 33 -6 -9 -3 -13 -33 -13 -98 0 -81 2 -94
18 -98 9 -3 -5 -5 -31 -6 -45 -1 -47 0 -32 15 10 10 15 29 13 48 -3 29 -5 31
-50 34 l-48 3 0 -40 c0 -28 5 -43 18 -50 13 -8 6 -10 -33 -10 -39 0 -46 2 -32
10 14 8 17 25 17 94 0 69 -3 86 -17 94 -14 8 -7 10 32 10 39 0 46 -2 33 -10z
m240 0 c-15 -8 -18 -25 -18 -94 0 -69 3 -86 18 -94 13 -8 6 -10 -33 -10 -39 0
-46 2 -32 10 14 8 17 25 17 94 0 69 -3 86 -17 94 -14 8 -7 10 32 10 39 0 46
-2 33 -10z m171 -77 c19 -48 41 -95 49 -104 14 -17 12 -18 -29 -18 -28 0 -39
3 -30 9 8 5 11 16 6 30 -5 17 -14 21 -46 21 -36 0 -40 -3 -45 -30 -5 -24 -12
-30 -32 -30 -23 0 -24 1 -10 18 9 9 30 56 48 105 18 48 38 87 44 87 6 0 26
-39 45 -88z m-1659 -165 c36 -28 50 -62 50 -120 0 -71 -22 -122 -61 -142 -33
-18 -186 -21 -156 -4 15 9 17 27 17 139 0 114 -2 129 -17 133 -10 3 20 5 67 6
53 0 91 -4 100 -12z m608 2 c-16 -9 -18 -26 -18 -134 l0 -125 43 0 c45 0 67
15 81 54 10 28 13 16 8 -31 l-4 -43 -87 0 -86 0 3 139 c3 127 1 140 -15 144
-10 3 7 5 37 6 42 0 51 -2 38 -10z m-399 -168 c21 -51 44 -97 52 -102 9 -6 0
-9 -30 -9 -32 0 -42 3 -34 11 6 6 8 19 6 30 -8 30 -81 27 -92 -3 -5 -13 -7
-26 -4 -30 2 -5 -8 -8 -23 -8 -21 0 -24 3 -15 13 6 8 22 42 35 78 13 35 29 77
35 92 6 16 16 27 22 25 6 -2 28 -46 48 -97z m208 67 c2 -31 -12 -38 -20 -9 -5
22 -51 33 -73 16 -25 -18 -13 -37 42 -65 44 -22 49 -29 52 -62 4 -46 -18 -60
-86 -56 -44 3 -47 5 -50 33 l-4 30 26 -28 c28 -30 53 -34 82 -13 26 20 10 44
-50 75 -54 28 -69 61 -40 92 14 16 28 19 68 17 47 -3 51 -5 53 -30z m483 5
c-1 -24 -2 -25 -11 -10 -7 11 -22 17 -49 17 -39 0 -40 -1 -40 -35 0 -33 2 -35
35 -35 19 0 35 -4 35 -10 0 -5 -16 -10 -35 -10 -34 0 -35 -1 -35 -40 0 -40 0
-40 39 -40 30 0 44 6 56 23 l16 22 -3 -30 -3 -30 -80 -3 c-64 -2 -77 0 -67 10
7 7 12 42 12 95 0 68 -3 84 -17 92 -13 8 4 10 65 11 l82 0 0 -27z m210 0 c-1
-24 -2 -25 -11 -10 -5 9 -21 17 -34 17 -25 0 -25 -1 -25 -85 0 -69 3 -86 18
-94 13 -8 6 -10 -33 -10 -39 0 -46 2 -32 10 14 8 17 25 17 94 l0 85 -29 0
c-20 0 -31 -6 -34 -17 -3 -11 -5 -7 -6 10 l-1 27 85 0 85 0 0 -27z m168 11
c29 -20 28 -50 -2 -77 l-24 -21 29 -42 c16 -23 34 -45 41 -47 7 -3 0 -6 -17
-6 -26 -1 -33 6 -55 46 -14 27 -33 49 -42 51 -15 3 -18 -4 -18 -41 0 -27 5
-47 13 -50 6 -3 -6 -6 -28 -6 -30 -1 -36 2 -27 11 19 19 16 163 -4 182 -14 15
-10 16 48 16 41 0 71 -5 86 -16z m217 -56 c15 -40 36 -88 46 -105 l18 -33 -32
0 c-29 0 -33 3 -32 28 0 25 -4 27 -42 30 -39 3 -42 1 -48 -27 -5 -25 -12 -31
-33 -31 -22 0 -24 2 -10 13 8 6 30 54 49 105 18 50 38 92 45 92 6 0 23 -33 39
-72z m215 40 c-1 -28 -2 -30 -11 -15 -13 22 -53 39 -74 30 -30 -11 -12 -47 33
-68 47 -23 62 -39 62 -72 0 -38 -27 -54 -84 -51 -47 3 -51 5 -54 31 l-3 27 25
-25 c37 -37 86 -31 86 10 0 18 -12 30 -52 52 -42 22 -54 34 -56 56 -5 43 13
57 74 57 l54 0 0 -32z"/>
<path d="M2720 3310 c0 -5 5 -10 10 -10 6 0 10 5 10 10 0 6 -4 10 -10 10 -5 0
-10 -4 -10 -10z"/>
<path d="M2660 3290 c0 -5 4 -10 9 -10 6 0 13 5 16 10 3 6 -1 10 -9 10 -9 0
-16 -4 -16 -10z"/>
<path d="M2777 3254 c-4 -4 -7 -14 -7 -23 0 -11 3 -12 11 -4 6 6 10 16 7 23
-2 6 -7 8 -11 4z"/>
<path d="M2232 3198 c6 -18 52 -33 74 -24 18 8 18 8 -1 16 -48 18 -77 21 -73
8z"/>
<path d="M2761 3202 c-1 -18 28 -86 34 -80 3 3 -3 25 -14 49 -11 24 -20 38
-20 31z"/>
<path d="M2390 3180 c0 -5 7 -10 15 -10 8 0 15 5 15 10 0 6 -7 10 -15 10 -8 0
-15 -4 -15 -10z"/>
<path d="M2684 3023 c-34 -54 -65 -105 -69 -113 -5 -8 29 21 76 65 46 44 84
82 83 85 -2 19 -17 60 -23 60 -3 0 -34 -44 -67 -97z"/>
<path d="M2321 3074 c6 -21 13 -41 16 -44 9 -9 -9 65 -18 74 -4 5 -3 -8 2 -30z"/>
<path d="M2810 3074 c0 -6 7 -19 16 -30 14 -18 14 -18 3 6 -14 31 -19 36 -19
24z"/>
<path d="M1988 3030 c-132 -39 -208 -193 -166 -332 14 -49 96 -144 111 -129 6
6 -4 26 -31 57 -104 117 -74 291 61 359 122 61 270 7 322 -117 8 -21 20 -38
25 -38 14 0 12 15 -6 58 -47 113 -194 179 -316 142z"/>
<path d="M2260 3023 c0 -5 10 -19 21 -33 l20 -25 -16 33 c-15 30 -25 41 -25
25z"/>
<path d="M2883 3017 c-32 -12 -42 -35 -13 -29 58 13 139 13 170 0 141 -60 187
-224 98 -350 -16 -22 -3 -35 18 -17 29 24 54 97 54 157 -1 97 -51 181 -135
224 -48 25 -147 33 -192 15z"/>
<path d="M2344 2998 c3 -14 9 -33 12 -42 9 -24 -24 -32 -41 -10 -8 11 -3 -8
10 -41 19 -48 29 -61 48 -63 l25 -3 -25 88 c-23 81 -44 133 -29 71z"/>
<path d="M2663 2905 l-121 -115 15 -31 c24 -49 -1 -109 -54 -130 -15 -6 -23
-17 -23 -33 0 -24 -32 -56 -57 -56 -21 0 -26 40 -7 61 21 23 22 22 -41 43 -46
15 -50 15 -58 0 -22 -39 -79 -91 -124 -114 l-48 -25 182 -3 c101 -1 265 -1
365 0 l183 3 -40 20 c-168 83 -207 308 -77 447 81 87 29 50 -95 -67z"/>
<path d="M2012 2991 c-10 -6 -9 -18 7 -57 l20 -49 -1 35 c0 53 -11 81 -26 71z"/>
<path d="M2044 2978 c3 -13 6 -33 6 -45 0 -44 15 -23 16 22 1 33 -3 45 -14 45
-10 0 -13 -7 -8 -22z"/>
<path d="M2081 2958 c1 -37 2 -39 9 -18 12 36 12 60 0 60 -5 0 -10 -19 -9 -42z"/>
<path d="M2116 2968 c-3 -13 -6 -30 -6 -38 1 -13 2 -13 9 0 16 27 22 60 13 60
-5 0 -12 -10 -16 -22z"/>
<path d="M2927 2984 c-8 -8 2 -55 14 -68 5 -5 6 8 2 30 -7 45 -7 46 -16 38z"/>
<path d="M2960 2961 c0 -17 5 -33 10 -36 6 -4 10 8 10 29 0 20 -4 36 -10 36
-5 0 -10 -13 -10 -29z"/>
<path d="M1970 2968 c1 -7 12 -33 26 -58 14 -25 23 -38 20 -29 -24 83 -30 99
-38 99 -4 0 -8 -6 -8 -12z"/>
<path d="M2142 2935 c-12 -25 -20 -45 -18 -45 12 0 57 73 49 81 -5 5 -18 -9
-31 -36z"/>
<path d="M2775 2948 c-68 -81 -84 -182 -41 -273 27 -60 102 -133 119 -116 8 8
-1 21 -31 47 -57 49 -82 100 -82 169 0 64 15 106 55 153 18 22 24 37 18 43 -7
7 -20 -1 -38 -23z"/>
<path d="M2998 2955 c-3 -14 -1 -25 3 -25 5 0 9 4 9 9 0 5 3 16 6 25 3 9 2 16
-4 16 -5 0 -12 -11 -14 -25z"/>
<path d="M1937 2958 c-17 -12 -15 -16 19 -56 20 -24 38 -41 40 -39 2 2 -6 27
-19 56 -20 46 -24 50 -40 39z"/>
<path d="M2890 2957 c0 -7 7 -22 15 -33 13 -17 14 -16 4 14 -11 33 -19 41 -19
19z"/>
<path d="M2871 2940 c14 -31 19 -36 19 -24 0 6 -7 19 -16 30 -14 18 -14 18 -3
-6z"/>
<path d="M2168 2911 c-16 -22 -28 -42 -28 -45 0 -3 20 9 45 26 34 24 42 34 34
45 -16 19 -21 17 -51 -26z"/>
<path d="M3057 2943 c-4 -3 -7 -11 -7 -17 0 -6 5 -5 12 2 6 6 9 14 7 17 -3 3
-9 2 -12 -2z"/>
<path d="M2816 2932 c-3 -6 -1 -14 5 -17 14 -9 20 -2 10 14 -6 8 -11 9 -15 3z"/>
<path d="M1893 2915 c-3 -9 -4 -17 -2 -18 2 -1 25 -17 51 -35 25 -17 49 -32
53 -32 3 0 -13 22 -37 50 -46 54 -55 59 -65 35z"/>
<path d="M3062 2900 c-25 -34 -15 -41 13 -10 10 11 23 20 28 20 6 0 -2 -13
-18 -30 -16 -16 -25 -30 -22 -30 6 0 46 22 66 37 5 4 -30 43 -39 43 -3 0 -16
-13 -28 -30z"/>
<path d="M2210 2890 c-14 -11 -22 -20 -18 -20 14 0 58 23 58 32 0 13 -13 9
-40 -12z"/>
<path d="M2790 2905 c0 -2 10 -10 23 -16 20 -11 21 -11 8 4 -13 16 -31 23 -31
12z"/>
<path d="M2780 2881 c0 -12 39 -35 46 -28 3 2 -7 12 -21 21 -14 9 -25 12 -25
7z"/>
<path d="M1870 2870 c0 -10 90 -53 97 -46 4 4 -81 56 -91 56 -3 0 -6 -4 -6
-10z"/>
<path d="M2201 2853 c-29 -13 -51 -26 -48 -29 8 -8 127 6 127 15 0 4 -6 14
-12 23 -12 14 -18 13 -67 -9z"/>
<path d="M3105 2849 c-28 -20 -29 -21 -5 -15 14 3 31 6 38 6 6 0 12 7 12 15 0
20 -9 19 -45 -6z"/>
<path d="M2508 2843 c-10 -2 -18 -9 -18 -14 0 -15 36 -10 50 6 13 16 5 18 -32
8z"/>
<path d="M2760 2841 c0 -8 76 -32 97 -31 4 1 -8 9 -27 20 -37 20 -70 26 -70
11z"/>
<path d="M1858 2815 c-7 -33 2 -37 83 -33 l64 3 -55 22 c-30 11 -62 24 -71 28
-12 4 -18 -1 -21 -20z"/>
<path d="M3100 2815 l-45 -13 58 -1 c44 -1 57 2 57 14 0 18 -9 18 -70 0z"/>
<path d="M2064 2796 c-8 -22 3 -33 18 -18 9 9 9 15 0 24 -9 9 -13 7 -18 -6z"/>
<path d="M2750 2802 c0 -8 69 -22 109 -22 14 1 14 2 1 9 -24 14 -110 25 -110
13z"/>
<path d="M2957 2790 c3 -13 0 -20 -8 -20 -10 0 -10 -3 -2 -11 7 -7 19 -9 27
-6 21 8 21 43 0 51 -22 9 -23 8 -17 -14z"/>
<path d="M3120 2780 l-35 -7 43 -2 c23 0 42 4 42 9 0 6 -3 9 -7 9 -5 -1 -24
-5 -43 -9z"/>
<path d="M2313 2773 c9 -2 25 -2 35 0 9 3 1 5 -18 5 -19 0 -27 -2 -17 -5z"/>
<path d="M2750 2755 c0 -13 7 -15 38 -9 72 13 80 23 20 23 -46 1 -58 -2 -58
-14z"/>
<path d="M1860 2745 c0 -18 23 -18 70 0 l35 13 -52 1 c-41 1 -53 -2 -53 -14z"/>
<path d="M2494 2752 c4 -6 -1 -23 -10 -37 -19 -29 -12 -44 11 -25 18 15 20 56
3 66 -7 4 -8 3 -4 -4z"/>
<path d="M2120 2739 c0 -14 23 -23 85 -36 47 -10 61 -10 67 0 12 20 9 26 -14
31 -44 9 -138 13 -138 5z"/>
<path d="M1911 2726 c-34 -12 -54 -36 -31 -36 13 0 80 39 80 46 0 6 -11 4 -49
-10z"/>
<path d="M2782 2733 c-16 -3 -22 -9 -18 -20 3 -8 6 -17 6 -19 0 -2 18 5 40 16
22 11 40 23 40 25 0 6 -33 4 -68 -2z"/>
<path d="M2287 2710 c-6 -24 12 -38 24 -19 13 21 11 39 -5 39 -7 0 -16 -9 -19
-20z"/>
<path d="M2340 2718 c0 -9 -3 -23 -6 -31 -3 -8 2 -17 12 -21 24 -9 26 -3 10
35 -9 19 -15 26 -16 17z"/>
<path d="M2380 2715 c0 -7 9 -23 20 -36 18 -21 20 -22 18 -5 -2 10 3 21 10 23
7 3 12 -4 12 -16 0 -11 5 -23 12 -27 8 -5 9 0 5 17 -4 13 -7 31 -7 40 0 10
-11 15 -35 16 -22 1 -35 -4 -35 -12z"/>
<path d="M1928 2696 c-21 -11 -38 -27 -38 -33 0 -21 14 -15 50 22 39 40 38 40
-12 11z"/>
<path d="M1963 2679 c-40 -38 -53 -60 -35 -58 6 0 86 99 80 99 -2 0 -22 -19
-45 -41z"/>
<path d="M2813 2693 c-33 -17 -40 -27 -25 -37 5 -3 22 8 37 24 33 34 32 35
-12 13z"/>
<path d="M3135 2700 c3 -5 8 -10 11 -10 2 0 4 5 4 10 0 6 -5 10 -11 10 -5 0
-7 -4 -4 -10z"/>
<path d="M2140 2696 c0 -13 43 -96 49 -96 5 0 24 17 42 37 l33 38 -40 12 c-38
11 -84 17 -84 9z"/>
<path d="M1996 2644 c-21 -33 -26 -48 -18 -56 8 -8 13 -6 18 8 4 10 13 34 21
53 19 49 12 47 -21 -5z"/>
<path d="M2053 2642 c-16 -64 -16 -82 -3 -82 16 0 21 23 18 81 l-3 54 -12 -53z"/>
<path d="M2110 2664 c0 -17 3 -45 6 -62 5 -23 10 -29 25 -25 22 6 19 23 -12
83 l-18 35 -1 -31z"/>
<path d="M2837 2662 c-32 -33 -36 -54 -6 -26 20 18 44 54 36 54 -2 0 -15 -13
-30 -28z"/>
<path d="M2871 2654 c-31 -35 -36 -54 -15 -61 5 -2 19 19 31 47 12 27 20 50
18 50 -2 0 -17 -16 -34 -36z"/>
<path d="M3112 2674 c10 -10 20 -15 24 -12 3 4 -5 12 -18 18 -22 12 -22 12 -6
-6z"/>
<path d="M3030 2676 c0 -15 44 -75 51 -70 5 3 -3 21 -17 40 -25 32 -34 40 -34
30z"/>
<path d="M3076 2656 c19 -26 34 -33 34 -17 0 5 -12 16 -26 26 l-27 17 19 -26z"/>
<path d="M2249 2637 c-15 -18 -49 -44 -75 -57 -27 -14 -51 -26 -53 -28 -3 -1
0 -7 6 -13 17 -17 96 25 138 74 19 22 35 44 35 49 0 19 -27 6 -51 -25z"/>
<path d="M2931 2626 c-13 -54 -13 -56 -2 -56 8 0 23 91 16 98 -1 1 -8 -17 -14
-42z"/>
<path d="M3011 2655 c1 -23 26 -78 31 -69 3 5 -2 25 -13 44 -10 19 -18 31 -18
25z"/>
<path d="M2022 2625 c-14 -31 -16 -63 -3 -49 9 10 25 74 18 74 -2 0 -9 -11
-15 -25z"/>
<path d="M2080 2606 c0 -25 5 -46 10 -46 6 0 10 18 10 39 0 22 -4 43 -10 46
-6 4 -10 -12 -10 -39z"/>
<path d="M2902 2625 c-14 -31 -16 -53 -3 -39 9 9 24 64 18 64 -2 0 -9 -11 -15
-25z"/>
<path d="M2991 2613 c-1 -24 3 -43 8 -43 17 0 19 14 5 50 l-12 35 -1 -42z"/>
<path d="M2959 2610 c-7 -35 -4 -48 7 -38 3 4 4 21 2 40 l-3 33 -6 -35z"/>
<path d="M1950 2615 c-7 -9 -8 -15 -2 -15 5 0 12 7 16 15 3 8 4 15 2 15 -2 0
-9 -7 -16 -15z"/>
<path d="M3070 2579 c-8 -5 -32 -14 -52 -19 -40 -11 -51 -30 -18 -30 26 0 100
30 100 40 0 15 -15 19 -30 9z"/>
<path d="M1856 2158 c-24 -34 -21 -123 4 -148 24 -24 32 -25 58 -2 32 27 33
121 2 152 -26 26 -45 25 -64 -2z"/>
<path d="M2330 2130 c0 -48 18 -60 55 -36 44 29 27 76 -27 76 -26 0 -28 -3
-28 -40z"/>
<path d="M2520 2115 c-6 -16 -13 -36 -15 -42 -3 -9 6 -13 25 -13 34 0 36 5 16
51 l-14 34 -12 -30z"/>
<path d="M3326 2116 c-3 -13 -9 -31 -12 -40 -5 -13 1 -16 26 -16 25 0 31 3 26
16 -3 9 -9 27 -12 40 -3 13 -10 24 -14 24 -4 0 -11 -11 -14 -24z"/>
<path d="M1622 1808 c3 -133 6 -138 63 -124 61 15 77 201 21 238 -6 4 -28 8
-49 8 l-38 0 3 -122z"/>
<path d="M1871 1787 c-15 -44 -12 -50 23 -45 l25 3 -18 40 -18 40 -12 -38z"/>
<path d="M2920 1811 c0 -33 4 -41 18 -41 30 0 54 24 50 51 -2 19 -10 25 -35
27 -32 3 -33 2 -33 -37z"/>
<path d="M3170 1795 c-6 -16 -13 -36 -15 -42 -3 -9 6 -13 25 -13 34 0 36 5 16
51 l-14 34 -12 -30z"/>
</g>
</svg>
