<?xml version="1.0" standalone="no"?>
<!DOCTYPE svg PUBLIC "-//W3C//DTD SVG 20010904//EN"
 "http://www.w3.org/TR/2001/REC-SVG-20010904/DTD/svg10.dtd">
<svg version="1.0" xmlns="http://www.w3.org/2000/svg"
 width="40.000000pt" height="40.000000pt" viewBox="0 0 500.000000 500.000000"
 preserveAspectRatio="xMidYMid meet">

<g transform="translate(0.000000,500.000000) scale(0.100000,-0.100000)"
fill="#000000" stroke="none">
<path d="M2276 4250 c-179 -22 -360 -78 -543 -165 -498 -238 -844 -684 -965
-1245 -30 -144 -33 -501 -4 -655 43 -231 168 -525 303 -714 86 -119 263 -300
372 -380 255 -188 552 -308 840 -341 162 -19 448 -8 586 23 442 100 811 342
1073 705 72 101 187 327 232 456 55 161 81 311 87 511 6 192 -6 312 -48 480
-141 558 -531 1003 -1066 1216 -210 84 -345 109 -598 114 -110 2 -231 0 -269
-5z m-179 -2515 c9 -13 12 -32 9 -53 -9 -58 -3 -62 90 -62 l83 0 3 63 c3 61 3
62 33 62 22 0 30 -5 35 -23 l5 -23 34 26 c40 29 59 32 67 10 4 -9 -4 -23 -20
-36 -28 -22 -34 -50 -13 -66 15 -13 337 -26 337 -14 0 5 -20 14 -44 20 -47 12
-76 33 -76 56 0 25 42 54 85 61 54 8 85 -2 85 -27 0 -19 -22 -25 -72 -20 -10
1 -18 -4 -18 -13 0 -11 10 -16 31 -16 21 0 40 -10 61 -30 28 -29 33 -30 119
-30 l89 0 0 38 c0 21 -5 43 -11 49 -19 19 -2 43 30 43 57 0 79 -23 47 -49 -8
-7 -14 -28 -13 -47 l1 -35 95 3 96 3 1 51 c1 73 6 77 81 71 77 -6 110 -31 119
-89 l7 -38 78 0 79 0 0 59 c0 44 4 60 16 65 30 12 151 6 162 -7 15 -17 3 -34
-30 -42 -24 -6 -26 -11 -21 -36 5 -28 4 -29 -31 -29 -23 0 -35 -4 -31 -10 4
-7 45 -10 103 -8 59 2 98 -1 100 -7 1 -5 -8 -11 -20 -13 -13 -1 -45 -6 -73
-12 -103 -19 -153 -20 -171 -2 -25 24 -164 24 -219 0 -48 -21 -131 -24 -138
-4 -9 22 -115 29 -166 11 -39 -13 -50 -13 -114 1 -74 17 -168 14 -191 -5 -7
-6 -40 -14 -73 -17 -46 -5 -67 -3 -93 11 -38 20 -176 23 -210 5 -26 -14 -26
-14 -53 16 l-24 26 -7 -26 c-7 -27 -42 -36 -62 -16 -12 12 -156 15 -195 5 -21
-5 -27 -2 -37 19 -16 35 -55 35 -70 1 -14 -31 -37 -41 -56 -26 -18 15 -163 16
-181 1 -9 -7 -21 -7 -39 0 -35 13 -93 13 -101 0 -9 -14 -49 -12 -63 2 -20 20
-157 14 -228 -10 -64 -21 -112 -21 -125 -1 -4 7 -26 15 -50 18 -56 8 -65 31
-11 31 45 0 55 13 46 59 -3 16 -1 38 5 50 10 17 21 21 67 21 89 0 134 -35 134
-106 0 -24 2 -24 86 -24 l85 0 26 56 c43 95 103 97 138 3 l21 -54 92 -3 c102
-3 97 -6 92 70 -4 64 5 70 87 66 60 -3 78 -7 90 -23z"/>
<path d="M1999 1699 c-10 -6 -11 -11 -2 -20 11 -11 53 -4 53 11 0 12 -36 19
-51 9z"/>
<path d="M3337 1693 c-11 -10 -8 -71 4 -78 5 -4 21 -4 35 -1 19 5 24 13 24 36
0 36 -42 64 -63 43z"/>
<path d="M3705 1690 c-4 -6 3 -10 14 -10 25 0 27 6 6 13 -8 4 -17 2 -20 -3z"/>
<path d="M1240 1655 c0 -35 1 -36 33 -33 28 3 32 6 32 33 0 27 -4 30 -32 33
-32 3 -33 2 -33 -33z"/>
<path d="M1636 1665 c-3 -9 0 -15 9 -15 16 0 20 16 6 24 -5 3 -11 -1 -15 -9z"/>
</g>
</svg>
