<?xml version="1.0" standalone="no"?>
<!DOCTYPE svg PUBLIC "-//W3C//DTD SVG 20010904//EN"
 "http://www.w3.org/TR/2001/REC-SVG-20010904/DTD/svg10.dtd">
<svg version="1.0" xmlns="http://www.w3.org/2000/svg"
 width="40.000000pt" height="40.000000pt" viewBox="0 0 500.000000 500.000000"
 preserveAspectRatio="xMidYMid meet">

<g transform="translate(0.000000,500.000000) scale(0.100000,-0.100000)"
fill="#000000" stroke="none">
<path d="M1015 2688 c-37 -13 -91 -63 -112 -103 -20 -37 -19 -134 1 -172 19
-37 64 -79 99 -92 16 -6 102 -11 198 -11 l169 0 0 40 0 40 -55 0 c-30 0 -55 3
-55 7 0 3 36 68 80 143 44 75 80 140 80 143 0 4 -22 7 -50 7 l-49 0 -48 -80
-48 -79 -67 -1 -68 0 0 -40 0 -40 40 0 c46 0 51 -12 14 -37 -32 -21 -86 -20
-119 1 -35 23 -50 85 -31 131 28 67 126 83 176 30 l23 -25 24 36 c14 19 22 42
19 50 -3 8 -29 26 -58 39 -56 26 -112 31 -163 13z"/>
<path d="M1506 2685 c-80 -28 -129 -98 -130 -186 -1 -46 5 -65 29 -104 75
-121 238 -126 329 -12 41 51 49 143 17 204 -47 94 -146 133 -245 98z m127
-105 c14 -11 31 -36 37 -55 23 -69 -47 -148 -115 -131 -92 23 -117 147 -37
190 38 21 85 19 115 -4z"/>
<path d="M2197 2690 c-109 -33 -167 -169 -118 -275 64 -139 255 -155 344 -29
107 152 -46 358 -226 304z m112 -104 c31 -17 51 -54 51 -97 0 -22 -10 -41 -35
-66 -32 -32 -40 -35 -73 -30 -86 14 -123 118 -63 178 33 33 75 38 120 15z"/>
<path d="M3686 2689 c-44 -12 -65 -38 -83 -98 -19 -68 -13 -176 15 -229 35
-67 131 -81 185 -26 69 68 58 306 -16 342 -34 16 -69 21 -101 11z m81 -66 c14
-21 18 -48 18 -123 0 -75 -4 -102 -18 -123 -23 -35 -70 -37 -91 -4 -35 53 -32
221 5 258 28 28 65 24 86 -8z"/>
<path d="M1798 2684 c-5 -4 -8 -90 -8 -191 l0 -183 85 0 c108 0 137 14 160 74
17 44 17 47 -3 87 -15 30 -18 47 -12 60 19 34 12 96 -14 125 -21 26 -30 28
-112 32 -49 2 -92 1 -96 -4z m126 -80 c34 -13 14 -64 -25 -64 -5 0 -9 16 -9
35 0 35 5 40 34 29z m24 -162 c4 -28 -14 -52 -39 -52 -16 0 -19 8 -19 41 0 38
1 40 28 37 19 -2 28 -9 30 -26z"/>
<path d="M2500 2671 c0 -10 9 -21 20 -24 19 -5 20 -14 20 -151 0 -139 -1 -146
-20 -146 -13 0 -20 -7 -20 -20 0 -19 7 -20 115 -20 l114 0 11 40 c12 45 7 60
-20 60 -12 0 -20 -8 -22 -22 -3 -20 -10 -23 -50 -26 l-48 -3 0 145 c0 139 1
146 20 146 13 0 20 7 20 20 0 18 -7 20 -70 20 -62 0 -70 -2 -70 -19z"/>
<path d="M2770 2671 c0 -13 8 -21 23 -23 22 -3 22 -6 25 -150 l3 -148 -26 0
c-18 0 -25 -5 -25 -20 0 -18 7 -20 75 -20 67 0 75 2 75 19 0 13 -8 21 -22 23
-23 3 -23 5 -23 148 0 143 0 145 23 148 14 2 22 10 22 23 0 17 -8 19 -75 19
-67 0 -75 -2 -75 -19z"/>
<path d="M2950 2671 c0 -10 8 -21 18 -24 12 -2 22 -17 26 -38 3 -19 23 -94 43
-166 l36 -133 33 0 c22 0 34 5 38 18 3 9 23 82 46 162 22 80 47 150 55 156 8
6 15 19 15 28 0 13 -11 16 -55 16 -48 0 -55 -3 -55 -19 0 -11 5 -21 11 -23 8
-3 4 -40 -16 -123 -15 -66 -31 -126 -35 -134 -5 -9 -14 14 -25 65 -9 43 -23
103 -30 132 -11 45 -11 54 1 59 8 3 14 14 14 24 0 17 -8 19 -60 19 -52 0 -60
-2 -60 -19z"/>
<path d="M3290 2671 c0 -10 9 -21 20 -24 19 -5 20 -14 20 -151 0 -139 -1 -146
-20 -146 -13 0 -20 -7 -20 -20 0 -18 7 -20 70 -20 63 0 70 2 70 20 0 13 -7 20
-20 20 -18 0 -20 7 -20 60 0 52 2 60 19 60 13 0 30 -22 58 -77 39 -77 39 -78
81 -81 37 -3 42 -1 42 17 0 14 -6 21 -19 21 -13 0 -30 20 -56 66 l-36 66 22
16 c27 19 52 77 44 105 -21 73 -48 87 -171 87 -76 0 -84 -2 -84 -19z m194 -64
c16 -44 -9 -81 -57 -85 l-37 -3 0 59 c0 32 2 61 5 64 3 3 22 2 42 -1 30 -5 40
-12 47 -34z"/>
<path d="M3944 2678 c-47 -22 -60 -113 -21 -152 12 -12 46 -35 74 -51 54 -29
69 -51 58 -85 -9 -29 -42 -43 -81 -35 -30 5 -34 10 -34 35 0 25 -4 30 -25 30
-23 0 -25 -4 -25 -45 0 -54 19 -68 100 -69 72 -1 105 20 122 75 17 58 -8 104
-80 142 -64 35 -88 67 -72 96 22 43 100 39 100 -5 0 -19 5 -24 25 -24 23 0 25
4 25 40 0 34 -4 42 -26 50 -33 13 -113 12 -140 -2z"/>
</g>
</svg>
