<?xml version="1.0" standalone="no"?>
<!DOCTYPE svg PUBLIC "-//W3C//DTD SVG 20010904//EN"
 "http://www.w3.org/TR/2001/REC-SVG-20010904/DTD/svg10.dtd">
<svg version="1.0" xmlns="http://www.w3.org/2000/svg"
 width="40.000000pt" height="40.000000pt" viewBox="0 0 500.000000 500.000000"
 preserveAspectRatio="xMidYMid meet">

<g transform="translate(0.000000,500.000000) scale(0.100000,-0.100000)"
fill="#000000" stroke="none">
<path d="M2434 4056 c-92 -30 -188 -117 -237 -215 -27 -56 -32 -77 -35 -162
-6 -133 29 -281 95 -409 12 -24 12 -25 -53 -42 -79 -22 -125 -45 -189 -93 -26
-20 -51 -33 -54 -28 -4 4 -31 40 -59 79 -95 131 -212 223 -333 265 -86 29
-208 23 -291 -14 -69 -31 -150 -104 -177 -160 -85 -177 40 -426 214 -427 54 0
137 40 169 83 83 109 9 267 -126 267 -36 0 -78 -40 -78 -73 0 -70 87 -103 135
-51 23 25 24 25 34 5 39 -72 -40 -171 -136 -171 -71 0 -153 88 -173 186 -24
117 27 214 144 274 64 32 76 35 160 35 84 0 97 -3 160 -34 77 -38 182 -131
252 -225 70 -92 71 -95 34 -152 -48 -76 -71 -164 -72 -269 0 -83 10 -129 46
-225 5 -13 -11 -15 -111 -16 -145 0 -234 -23 -380 -95 -208 -103 -280 -238
-223 -421 55 -179 230 -329 401 -345 l57 -6 4 -71 c6 -87 38 -156 98 -210 56
-51 103 -69 175 -69 112 -1 220 73 316 215 l42 61 39 -82 c44 -93 145 -208
229 -262 126 -80 305 -121 445 -100 74 11 83 10 139 -12 84 -33 142 -72 160
-107 16 -31 38 -39 51 -19 4 7 7 59 8 118 2 126 21 187 89 283 59 83 82 131
107 219 25 91 27 247 5 334 -22 86 -75 191 -128 257 -26 31 -47 59 -47 62 0 3
12 6 28 6 15 0 63 7 107 15 176 33 292 96 350 189 24 40 30 62 33 120 4 65 1
77 -30 136 -37 72 -106 132 -173 152 -22 6 -41 12 -43 13 -1 1 5 22 14 46 25
66 23 190 -4 263 -86 235 -274 365 -454 312 -133 -38 -325 -231 -402 -403
l-19 -42 -53 53 c-82 82 -221 146 -316 146 -39 0 -40 1 -73 73 -62 136 -80
210 -80 337 0 102 3 121 25 165 49 100 154 180 250 192 80 9 136 -12 201 -76
83 -83 101 -177 48 -245 -45 -57 -133 -74 -183 -35 -33 26 -33 37 -1 45 32 8
65 49 65 81 0 33 -42 73 -77 73 -107 -2 -112 -196 -6 -261 78 -49 203 -14 260
72 75 114 4 302 -141 376 -61 31 -168 40 -232 19z m927 -646 c94 -47 196 -196
219 -317 16 -89 -20 -233 -59 -233 -29 0 -150 -65 -223 -120 -77 -59 -227
-191 -332 -292 -39 -39 -88 -79 -109 -89 l-37 -20 -11 28 c-49 128 -71 342
-49 480 25 161 102 314 217 434 63 66 142 124 199 145 51 19 129 12 185 -16z
m295 -625 c114 -46 176 -193 125 -294 -51 -100 -173 -158 -389 -186 -120 -16
-448 -20 -470 -6 -16 10 206 227 348 340 203 162 277 190 386 146z m-962 -137
c3 -46 9 -103 12 -128 l5 -45 -63 -46 c-89 -65 -176 -116 -236 -139 l-52 -20
-48 34 c-26 18 -69 46 -97 61 -27 15 -54 29 -58 32 -5 3 43 30 106 62 109 54
305 179 377 240 19 17 38 30 41 31 3 0 9 -37 13 -82z m-744 -242 c78 -20 133
-41 213 -82 77 -39 217 -138 217 -154 0 -20 -72 -65 -196 -121 -252 -116 -470
-253 -523 -330 -23 -33 -31 -38 -66 -39 -61 0 -152 27 -200 60 -63 43 -130
123 -167 198 -28 56 -33 78 -33 137 0 119 51 182 216 265 80 41 161 68 244 81
66 10 226 2 295 -15z m1349 -230 l54 -55 -18 -28 c-34 -53 -210 -219 -294
-278 -109 -76 -382 -214 -491 -248 -91 -29 -205 -51 -225 -43 -21 8 -40 95
-27 125 6 14 28 69 50 121 l39 95 89 26 c105 31 169 56 262 103 83 42 231 141
292 195 45 40 45 40 130 41 l86 0 53 -54z m-909 -115 c0 -20 -75 -223 -120
-323 -89 -200 -200 -348 -295 -392 -132 -63 -286 33 -302 188 -14 131 65 214
342 362 107 57 353 173 368 174 4 0 7 -4 7 -9z m1060 -474 c-96 -318 -429
-503 -741 -411 -28 9 -48 19 -43 23 5 4 50 25 99 46 221 92 493 256 635 380
35 32 66 52 68 46 2 -6 -6 -44 -18 -84z"/>
</g>
</svg>
