<?xml version="1.0" standalone="no"?>
<!DOCTYPE svg PUBLIC "-//W3C//DTD SVG 20010904//EN"
 "http://www.w3.org/TR/2001/REC-SVG-20010904/DTD/svg10.dtd">
<svg version="1.0" xmlns="http://www.w3.org/2000/svg"
 width="40.000000pt" height="40.000000pt" viewBox="0 0 500.000000 500.000000"
 preserveAspectRatio="xMidYMid meet">

<g transform="translate(0.000000,500.000000) scale(0.100000,-0.100000)"
fill="#000000" stroke="none">
<path d="M2250 4245 c-188 -26 -374 -86 -562 -182 -398 -202 -715 -572 -857
-998 -72 -215 -86 -308 -86 -560 0 -188 4 -236 23 -333 144 -720 696 -1269
1410 -1404 98 -19 152 -22 332 -22 195 0 227 2 342 27 622 132 1127 582 1322
1178 101 308 114 671 35 981 -77 307 -239 590 -465 815 -280 279 -641 456
-1024 503 -113 13 -352 11 -470 -5z m-827 -1547 c5 -80 -3 -125 -26 -140 -7
-4 -42 -8 -78 -8 -64 0 -68 2 -98 35 -17 20 -31 40 -31 45 0 6 -5 10 -10 10
-6 0 -9 -19 -8 -42 l3 -43 -57 0 c-84 1 -103 22 -103 116 0 107 3 109 225 109
l177 0 6 -82z m864 -20 c3 -90 1 -98 -19 -112 -15 -11 -45 -16 -86 -16 -57 0
-66 3 -90 29 -15 15 -36 43 -47 62 -17 29 -26 34 -64 37 -32 2 -42 0 -39 -10
3 -8 24 -14 52 -16 l47 -3 -3 -47 -3 -47 -57 0 c-72 0 -94 19 -103 85 -8 56 7
115 33 130 10 6 92 9 197 7 l180 -2 2 -97z m823 92 c50 -26 53 -156 6 -197
-26 -22 -35 -23 -171 -23 -86 0 -154 5 -169 11 -34 16 -49 59 -44 126 8 89 17
93 206 92 85 0 163 -4 172 -9z m877 -85 c3 -122 -5 -135 -93 -135 -78 0 -95 8
-126 57 l-23 38 -5 -45 c-5 -45 -5 -45 -47 -48 -53 -4 -101 20 -108 53 -3 14
-7 35 -10 48 -6 33 12 100 32 114 13 10 62 13 198 11 l180 -3 2 -90z m-2577
-262 c17 -21 20 -35 15 -64 l-7 -38 44 -3 43 -3 3 -47 3 -48 -249 0 -250 0 0
91 c0 83 2 94 23 115 23 23 29 24 189 24 l165 0 21 -27z m628 -25 l3 -47 -47
-3 c-26 -2 -49 -9 -51 -15 -4 -10 37 -13 169 -15 l173 -3 0 -45 0 -45 -203 0
-204 0 -1 98 c-2 120 5 129 98 125 l60 -3 3 -47z m1102 -128 l0 -50 -252 2
-253 3 -2 30 c-4 69 -18 65 258 65 l249 0 0 -50z m846 26 c3 -13 4 -35 2 -47
l-3 -24 -252 -3 -253 -2 0 50 0 50 250 0 250 0 6 -24z"/>
<path d="M1080 2666 c0 -12 11 -16 46 -16 59 0 55 24 -4 28 -33 2 -42 0 -42
-12z"/>
<path d="M1252 2668 c3 -8 26 -14 56 -16 42 -2 52 0 52 12 0 13 -12 16 -56 16
-40 0 -55 -4 -52 -12z"/>
<path d="M2112 2668 c3 -8 26 -14 56 -16 42 -2 52 0 52 12 0 13 -12 16 -56 16
-40 0 -55 -4 -52 -12z"/>
<path d="M2972 2670 c2 -11 17 -15 52 -15 71 0 72 22 1 27 -45 2 -55 0 -53
-12z"/>
<path d="M2802 2668 c3 -7 25 -14 51 -16 37 -2 47 0 47 12 0 12 -12 16 -51 16
-36 0 -49 -4 -47 -12z"/>
<path d="M3642 2668 c3 -7 25 -14 51 -16 39 -3 46 0 41 12 -8 20 -98 23 -92 4z"/>
<path d="M3812 2668 c3 -8 26 -14 56 -16 42 -2 52 0 52 12 0 13 -12 16 -56 16
-40 0 -55 -4 -52 -12z"/>
<path d="M1080 2335 c0 -13 22 -15 140 -15 118 0 140 2 140 15 0 13 -22 15
-140 15 -118 0 -140 -2 -140 -15z"/>
</g>
</svg>
